<svg xmlns="http://www.w3.org/2000/svg" viewBox="0 0 50 50"><rect style="display:none;fill:#5BC9ED;" width="50" height="50"/><polygon style="fill:#808080;" points="46.3,8.8 41.2,3.7 25,20 8.8,3.7 3.7,8.8 20,25 3.7,41.2 8.8,46.3 25,30 41.2,46.3 46.3,41.2 30,25"/><polygon style="display:none;fill:#EEEEEE;" points="46.3,8.8 41.2,3.7 25,20 8.8,3.7 3.7,8.8 20,25 3.7,41.2 8.8,46.3 25,30 41.2,46.3 46.3,41.2 30,25"/><path style="display:none;fill:#2A2A2A;" d="M0 0v50h50V0H0z M46.255 41.245l-5.011 5.011L25 30.011L8.755 46.255l-5.011-5.011L19.989 25 L3.745 8.755l5.011-5.011L25 19.989L41.245 3.745l5.011 5.011L30.011 25L46.255 41.245z"/></svg>