<svg xmlns="http://www.w3.org/2000/svg" viewBox="0 0 36 36"><rect style="display:none;fill:#EEEEEE;" width="36" height="36"/><g><path style="fill:#EEEEEE;" d="M10 29c0 1.1 0.9 2 2 2h12c1.104 0 2-0.896 2-2V7c0-1.104-0.896-2-2-2H12c-1.104 0-2 0.896-2 2V29z"/></g><g style="display:none;"><path style="display:inline;fill:#2A2A2A;" d="M4 29c0 1.1 0.9 2 2 2h12c1.104 0 2-0.896 2-2V7c0-1.104-0.896-2-2-2H6C4.896 5 4 5.9 4 7V29z"/></g><g style="display:none;"><path style="display:inline;fill:#2A2A2A;" d="M24 29c0 1.1 0.9 2 2 2h4c1.104 0 2-0.896 2-2V7c0-1.104-0.896-2-2-2h-4c-1.104 0-2 0.896-2 2V29z"/></g></svg>