<svg xmlns="http://www.w3.org/2000/svg" viewBox="17.725 20.593 510 135"><rect x="0.8" style="display:none;fill:#2A2A2A;" width="596" height="568.7"/><rect y="0" style="display:none;fill:#EEEEEE;" width="596" height="568.7"/><path style="fill:#5BC9ED;" d="M81.501 155.239c-35.167 0-63.776-28.61-63.776-63.776h14.173c0 27.4 22.3 49.6 49.6 49.604V155.239z "/><path style="fill:#5BC9ED;" d="M31.898 84.37H17.725c0-35.167 28.61-63.776 63.776-63.776v14.173C54.15 34.8 31.9 57 31.9 84.37z"/><circle style="fill:#5BC9ED;" cx="56.7" cy="87.9" r="7.1"/><path style="fill:#5BC9ED;" d="M159.45 84.37h-14.173c0-27.352-22.252-49.604-49.604-49.604V20.593 C130.84 20.6 159.4 49.2 159.4 84.37z"/><path style="fill:#5BC9ED;" d="M159.45 91.459h-14.173c0 14.763-6.539 28.587-17.704 37.969c-10.828-9.106-17.727-22.743-17.727-37.966 H95.674h0v63.776h7.087v-34.615c10.606 20.5 32 34.6 56.7 34.615v-14.173c-6.837 0-13.356-1.391-19.289-3.904 C152.396 125.3 159.4 108.9 159.4 91.459z"/><rect x="173.6" y="20.6" style="fill:#5BC9ED;" width="14.2" height="134.6"/><path style="fill:#5BC9ED;" d="M216.146 84.37h-14.173c0-35.167 28.61-63.776 63.776-63.776v14.173 C238.398 34.8 216.1 57 216.1 84.37z"/><path style="fill:#5BC9ED;" d="M201.973 155.239v-14.173c27.352 0 49.604-22.252 49.604-49.604h14.173 C265.75 126.6 237.1 155.2 202 155.239z"/><circle style="fill:#5BC9ED;" cx="233.9" cy="87.9" r="7.1"/><rect x="279.9" y="20.6" style="fill:#5BC9ED;" width="14.2" height="134.6"/><path style="fill:#5BC9ED;" d="M372.048 84.37h-14.174c0-27.352-22.251-49.604-49.603-49.604V20.593 C343.438 20.6 372 49.2 372 84.37z"/><path style="fill:#5BC9ED;" d="M363.492 123.391c5.611-9.676 8.561-20.612 8.561-31.928h-14.174c0 6.725-1.343 13.273-3.918 19.3 c-11.595-11.919-27.786-19.344-45.688-19.344v14.173c24.994 0 45.7 18.6 49.1 42.658h-49.132v6.945h63.802 C372.048 143.6 368.9 132.8 363.5 123.391z"/><path style="fill:#5BC9ED;" d="M450.002 155.236c-35.167 0-63.777-28.61-63.777-63.776V20.593h14.174v70.866 c0 27.4 22.3 49.6 49.6 49.604V155.236z"/><path style="fill:#5BC9ED;" d="M527.954 155.239c-35.166 0-63.776-28.61-63.776-63.776h14.174c0 27.4 22.3 49.6 49.6 49.604V155.239 z"/><path style="fill:#5BC9ED;" d="M478.351 84.37h-14.174c0-35.167 28.61-63.776 63.776-63.776v14.173 C500.602 34.8 478.4 57 478.4 84.37z"/><circle style="fill:#5BC9ED;" cx="503.1" cy="87.9" r="7.1"/></svg>