<?xml version="1.0" encoding="utf-8"?>
<!-- Generator: Adobe Illustrator 15.1.0, SVG Export Plug-In  -->
<!DOCTYPE svg PUBLIC "-//W3C//DTD SVG 1.1//EN" "http://www.w3.org/Graphics/SVG/1.1/DTD/svg11.dtd" [
	<!ENTITY ns_flows "http://ns.adobe.com/Flows/1.0/">
	<!ENTITY st0 "fill:#5BC9ED;">
	<!ENTITY st1 "fill:#FFAF5C;">
	<!ENTITY st2 "fill:#6981F0;">
	<!ENTITY st3 "display:none;fill:#EEEEEE;">
	<!ENTITY st4 "display:none;fill:#2A2A2A;">
]>
<svg version="1.1"
	 xmlns="http://www.w3.org/2000/svg" xmlns:xlink="http://www.w3.org/1999/xlink" xmlns:a="http://ns.adobe.com/AdobeSVGViewerExtensions/3.0/"
	 x="0px" y="0px" viewBox="17.725 20.593 510 135"
	 style="enable-background:new 17.725 20.593 510 135;" xml:space="preserve">
<defs>
</defs>
<rect x="0.824" style="&st4;" width="596" height="568.667"/>
<rect y="0" style="&st3;" width="596" height="568.667"/>
<path style="&st0;" d="M81.501,155.239c-35.167,0-63.776-28.61-63.776-63.776h14.173c0,27.352,22.252,49.604,49.604,49.604V155.239z
	"/>
<path style="&st0;" d="M31.898,84.37H17.725c0-35.167,28.61-63.776,63.776-63.776v14.173C54.15,34.766,31.898,57.018,31.898,84.37z"
	/>
<circle style="&st0;" cx="56.698" cy="87.916" r="7.087"/>
<path style="&st0;" d="M159.45,84.37h-14.173c0-27.352-22.252-49.604-49.604-49.604V20.593
	C130.84,20.593,159.45,49.203,159.45,84.37z"/>
<path style="&st0;" d="M159.45,91.459h-14.173c0,14.763-6.539,28.587-17.704,37.969c-10.828-9.106-17.727-22.743-17.727-37.966
	H95.674h0v63.776h7.087v-34.615c10.606,20.535,32.028,34.615,56.689,34.615v-14.173c-6.837,0-13.356-1.391-19.289-3.904
	C152.396,125.261,159.45,108.863,159.45,91.459z"/>
<rect x="173.627" y="20.593" style="&st0;" width="14.173" height="134.646"/>
<path style="&st0;" d="M216.146,84.37h-14.173c0-35.167,28.61-63.776,63.776-63.776v14.173
	C238.398,34.767,216.146,57.019,216.146,84.37z"/>
<path style="&st0;" d="M201.973,155.239v-14.173c27.352,0,49.604-22.252,49.604-49.604h14.173
	C265.75,126.629,237.14,155.239,201.973,155.239z"/>
<circle style="&st0;" cx="233.863" cy="87.916" r="7.087"/>
<rect x="279.926" y="20.593" style="&st0;" width="14.173" height="134.646"/>
<path style="&st0;" d="M372.048,84.37h-14.174c0-27.352-22.251-49.604-49.603-49.604V20.593
	C343.438,20.593,372.048,49.203,372.048,84.37z"/>
<path style="&st0;" d="M363.492,123.391c5.611-9.676,8.561-20.612,8.561-31.928h-14.174c0,6.725-1.343,13.273-3.918,19.344
	c-11.595-11.919-27.786-19.344-45.688-19.344v14.173c24.994,0,45.718,18.584,49.106,42.658h-49.132v6.945h63.802
	C372.048,143.644,368.922,132.771,363.492,123.391z"/>
<path style="&st0;" d="M450.002,155.236c-35.167,0-63.777-28.61-63.777-63.776V20.593h14.174v70.866
	c0,27.352,22.252,49.604,49.604,49.604V155.236z"/>
<path style="&st0;" d="M527.954,155.239c-35.166,0-63.776-28.61-63.776-63.776h14.174c0,27.352,22.251,49.604,49.603,49.604V155.239
	z"/>
<path style="&st0;" d="M478.351,84.37h-14.174c0-35.167,28.61-63.776,63.776-63.776v14.173
	C500.602,34.767,478.351,57.019,478.351,84.37z"/>
<circle style="&st0;" cx="503.15" cy="87.913" r="7.087"/>
</svg>
