<svg xmlns="http://www.w3.org/2000/svg" viewBox="0 -9.367 100 100"><path style="fill:#808080;" d="M97.238 1.5c-3.965 2.352-8.355 4.059-13.029 4.979C80.467 2.5 75.1 0 69.2 0 C57.904 0 48.7 9.2 48.7 20.515c0 1.6 0.2 3.2 0.5 4.676C32.199 24.3 17.1 16.2 7 3.8 c-1.766 3.029-2.778 6.553-2.778 10.314c0 7.1 3.6 13.4 9.1 17.076c-3.362-0.106-6.526-1.029-9.292-2.565 c-0.002 0.084-0.002 0.171-0.002 0.258c0 9.9 7.1 18.2 16.5 20.117c-1.722 0.469-3.534 0.719-5.405 0.7 c-1.321 0-2.606-0.128-3.859-0.368c2.611 8.2 10.2 14.1 19.2 14.247c-7.021 5.503-15.869 8.783-25.479 8.8 c-1.656 0-3.29-0.098-4.895-0.287c9.079 5.8 19.9 9.2 31.4 9.217c37.737 0 58.374-31.261 58.374-58.373 c0-0.89-0.02-1.774-0.06-2.654C93.771 17.3 97.2 13.7 100 9.62c-3.68 1.632-7.633 2.734-11.784 3.2 C92.453 10.3 95.7 6.3 97.2 1.5z"/></svg>