<svg xmlns="http://www.w3.org/2000/svg" viewBox="0 -7.327 100 100"><path style="fill:#808080;" d="M84.466 41.684c0.966-3.558 1.26-7.643 1.236-12.201c-0.013-6.539-2.498-11.763-6.486-15.722 c0.683-2.251 1.596-7.251-0.978-13.642c0 0-4.505-1.409-14.673 5.451c-3.99-0.985-8.237-1.456-12.482-1.449 c-4.687 0.02-9.411 0.631-13.813 1.86C26.73-1.161 22.1 0.3 22.1 0.326c-3 7.6-1.107 13.207-0.541 14.6 c-3.525 3.862-5.688 8.785-5.675 14.807c0.026 4.5 0.6 8.6 1.8 12.162C12.42 41.7 7.4 41.2 0 42.32l0.051 0.4 c7.49-1.152 12.549-0.592 17.825-0.412c0.283 0.7 0.6 1.4 0.9 2.131c-5.161 0.185-10.412 0.02-18.082 1.8l0.103 0.4 c7.76-1.808 13.089-1.621 18.211-1.802c3.578 6.6 10.6 10.9 23 12.168c-1.777 1.203-3.564 3.229-4.286 6.6 c-2.394 1.172-10.013 4.016-14.607-3.847c0 0-2.574-4.68-7.464-5.028c0 0-4.762-0.056-0.335 2.967c0 0 3.2 1.5 5.4 7.1 c0 0 2.9 9.6 16.7 6.473l0.039 9.937c0 0-0.099 1.113-0.761 2.306l4.864 1.059c0.167 0 0.3 0 0.5 0.1 c0.574-0.788 0.952-1.834 0.94-3.304L43.05 70.621c0 0-0.386-4.287 1.725-5.791l0.064 17.799c0 0.002-0.128 1.128-0.749 2.4 l5.521 0.338c0.027 0 0.1 0 0.1 0.006c0.119 0 0.238-0.006 0.357-0.008c0.342-0.813 0.566-1.797 0.611-3.023l0.077-18.012 l1.481-0.008l0.191 18.008c0.058 1.2 0.3 2.1 0.6 2.917l5.322-0.615c0.078-0.013 0.157-0.028 0.236-0.042 c-0.252-1.102-0.285-1.987-0.285-1.987l-0.065-17.645c2.112 1.6 1.8 5.6 1.8 5.632l0.038 10.8 c0 1.1 0.2 2 0.6 2.748l5.677-1.577c0.001 0 0.002-0.001 0.003-0.002c-0.646-0.734-0.736-1.336-0.736-1.336l-0.053-14.21 c-0.012-5.54-2.354-8.46-4.632-10.005c13.258-1.366 19.616-5.681 22.523-12.362c4.994 0.1 8.568-0.4 15.8 1.2 c0.018-0.082 0.043-0.161 0.062-0.244l0.03-0.176c-7.152-1.595-10.689-1.099-15.704-1.229c0.27-0.673 0.515-1.377 0.721-2.096 c5.036-0.234 8.72-1.038 15.586-0.141l0.075-0.43C93.181 40.7 89.5 41.5 84.5 41.684z M16.897 56.7 c-0.527 0-0.952-0.291-0.952-0.657c0-0.368 0.425-0.663 0.952-0.663c0.515-0.004 0.9 0.3 0.9 0.7 C17.837 56.4 17.4 56.7 16.9 56.666z M18.571 57.463c0-0.368 0.438-0.659 0.952-0.659c0.527-0.005 1 0.3 1 0.7 c0.014 0.368-0.424 0.664-0.938 0.664C19.009 58.1 18.6 57.8 18.6 57.463z M20.192 59.363c0-0.368 0.424-0.664 0.952-0.664 c0.516 0 1 0.3 1 0.656c0 0.368-0.438 0.656-0.953 0.664C20.617 60 20.2 59.7 20.2 59.363z M22.624 62.2 c-0.526 0-0.964-0.294-0.964-0.657c0-0.366 0.425-0.669 0.953-0.669c0.514 0 1 0.3 1 0.7 C23.564 61.9 23.1 62.2 22.6 62.212z M24.233 64.26c-0.527 0-0.952-0.298-0.952-0.664c0-0.354 0.425-0.656 0.952-0.664 c0.516 0 0.9 0.3 0.9 0.657C25.174 64 24.8 64.3 24.2 64.26z M26.421 66.002c-0.515 0-0.938-0.289-0.938-0.664 c0-0.353 0.411-0.655 0.938-0.655c0.529-0.008 1 0.3 1 0.655C27.374 65.7 26.9 66 26.4 66.002z M29.512 67.2 c-0.542 0-0.952-0.301-0.966-0.656c0-0.372 0.425-0.663 0.952-0.663c0.528 0 1 0.3 1 0.7 C30.451 66.9 30 67.2 29.5 67.167z M32.562 67.154c-0.528 0-0.952-0.296-0.952-0.654c0-0.368 0.424-0.664 0.952-0.664 c0.514 0 0.9 0.3 0.9 0.664C33.514 66.9 33.1 67.2 32.6 67.154z M35.664 66.633c-0.529 0-0.952-0.288-0.952-0.656 c0-0.361 0.425-0.664 0.939-0.664c0.527-0.005 1 0.3 1 0.651C36.603 66.3 36.2 66.6 35.7 66.633z"/></svg>