<svg xmlns="http://www.w3.org/2000/svg" viewBox="-0.006 -28.29 100 100"><path style="fill:#FF6600;" d="M1.132 37.763c0.203 0 0.366-0.16 0.399-0.388l0.866-5.461l-0.866-5.554C1.5 26.1 1.3 26 1.1 26 c-0.208 0-0.374 0.161-0.401 0.392L0 31.914l0.731 5.459C0.758 37.6 0.9 37.8 1.1 37.763z"/><path style="fill:#FF6600;" d="M22.125 31.922l-0.746-16.521c-0.023-0.419-0.303-0.75-0.704-0.75c-0.404 0-0.712 0.331-0.73 0.8 l-0.774 16.521l0.782 10.676c0.021 0.4 0.1 0.7 0.5 0.746c0.402 0 0.513-0.331 0.513-0.748V42.6L22.125 31.922z"/><path style="fill:#FF6600;" d="M12.716 43.082c0.306 0 0.559-0.247 0.587-0.574l1.001-10.59l-1.001-10.949 c-0.028-0.328-0.281-0.576-0.587-0.576c-0.31 0-0.563 0.248-0.588 0.578l-0.881 10.947l0.881 10.6 C12.152 42.8 12.4 43.1 12.7 43.082z"/><path style="fill:#FF6600;" d="M24.79 43.365c0.449 0 0.82-0.366 0.842-0.835l0.826-10.605l-0.826-20.298 c-0.023-0.469-0.393-0.835-0.842-0.835c-0.454 0-0.823 0.367-0.843 0.835c0 0-0.731 20.298-0.731 20.298l0.731 10.6 C23.966 43 24.3 43.4 24.8 43.365z"/><path style="fill:#FF6600;" d="M8.755 42.67c0.261 0 0.472-0.205 0.501-0.489l1.061-10.265l-1.06-10.655c-0.03-0.285-0.241-0.49-0.501-0.49 c-0.264 0-0.474 0.207-0.501 0.49c0 0.001-0.934 10.655-0.934 10.655l0.934 10.263C8.28 42.5 8.5 42.7 8.8 42.67z"/><path style="fill:#FF6600;" d="M4.828 41.1c0.209 0 0.38-0.166 0.415-0.403l1.119-8.783l-1.118-8.979c-0.034-0.239-0.206-0.404-0.416-0.404 c-0.212 0-0.388 0.169-0.417 0.404c0 0.001-0.982 8.979-0.982 8.979l0.982 8.781C4.44 40.9 4.6 41.1 4.8 41.1z"/><path style="fill:#FF6600;" d="M16.708 43.256c0.356 0 0.644-0.286 0.671-0.66l0.943-10.678L17.38 21.8 c-0.027-0.375-0.315-0.658-0.671-0.658c-0.361 0-0.65 0.285-0.672 0.663l-0.832 10.154l0.832 10.7 C16.06 43 16.3 43.3 16.7 43.256z"/><path style="fill:#FF6600;" d="M51.657 31.938L51.005 4.23c-0.01-0.743-0.558-1.349-1.295-1.349c-0.739 0-1.309 0.606-1.319 1.4 L47.87 31.938l0.601 10.053c0.01 0.7 0.5 1.3 1.2 1.34c0.737 0 1.3-0.606 1.3-1.35v0.012L51.657 31.938z"/><path style="fill:#FF6600;" d="M28.877 43.343c0.5 0 0.907-0.403 0.927-0.919l0.767-10.498L29.806 9.9 c-0.021-0.516-0.427-0.919-0.927-0.919c-0.504 0-0.912 0.404-0.928 0.921c0 0-0.682 21.992-0.682 21.992l0.682 10.5 C27.967 42.9 28.4 43.3 28.9 43.343z"/><path style="fill:#FF6600;" d="M45.555 43.393c0.688 0 1.256-0.567 1.269-1.264l0.536-10.195L46.824 6.5 c-0.012-0.696-0.581-1.264-1.269-1.264c-0.689 0-1.259 0.567-1.269 1.265l-0.478 25.391c0 0 0.5 10.2 0.5 10.2 C44.296 42.8 44.9 43.4 45.6 43.393z"/><path style="fill:#FF6600;" d="M87.722 18.823c-1.685 0-3.256 0.341-4.721 0.955C82.023 8.7 72.8 0 61.5 0 c-2.774 0-5.26 0.545-7.648 1.469c-0.928 0.359-0.821 0.729-0.821 1.446v39.033c0 0.8 0.2 1.4 1 1.5 c0.031 0 33.5 0 33.8 0.02c6.791 0 12.296-5.505 12.296-12.299C100.018 24.3 94.5 18.8 87.7 18.823z"/><path style="fill:#FF6600;" d="M32.99 43.364c0.552 0 1.004-0.442 1.004-1.004v-0.002l0.721-10.429l-0.77-22.736 c-0.018-0.564-0.423-1.008-0.973-1.008c-0.552 0-0.971 0.443-0.986 1.008l-0.604 22.734l0.598 10.4 C31.994 42.9 32.4 43.4 33 43.364z"/><path style="fill:#FF6600;" d="M39.276 31.928L38.361 9.775c-0.016-0.612-0.547-1.092-1.146-1.092c-0.604 0-1.103 0.479-1.117 1.1 L35.526 31.93l0.612 10.335c0.013 0.6 0.8 1.1 1.4 1.087c0.598 0 1.467-0.48 1.467-1.093v0.008L39.276 31.928z"/><path style="fill:#FF6600;" d="M43.353 31.933l-0.791-21.349c-0.016-0.66-0.546-1.177-1.196-1.177c-0.65 0-1.171 0.517-1.184 1.2 l-0.513 21.345l0.568 10.271c0.013 0.7 0.7 1.2 1.3 1.171c0.65 0 1.418-0.516 1.418-1.178v0.009L43.353 31.933z"/></svg>