<?xml version="1.0" encoding="utf-8"?>
<!-- Generator: Adobe Illustrator 15.1.0, SVG Export Plug-In  -->
<!DOCTYPE svg PUBLIC "-//W3C//DTD SVG 1.1//EN" "http://www.w3.org/Graphics/SVG/1.1/DTD/svg11.dtd" [
	<!ENTITY ns_flows "http://ns.adobe.com/Flows/1.0/">
	<!ENTITY st0 "fill:#808080;">
	<!ENTITY st1 "fill:#FF6600;">
	<!ENTITY st2 "fill:#FF9900;">
	<!ENTITY st3 "fill:#00ACED;">
	<!ENTITY st4 "fill:#4183C4;">
]>
<svg version="1.1"
	 xmlns="http://www.w3.org/2000/svg" xmlns:xlink="http://www.w3.org/1999/xlink" xmlns:a="http://ns.adobe.com/AdobeSVGViewerExtensions/3.0/"
	 x="0px" y="0px" viewBox="0 -9.367 100 100" style="enable-background:new 0 -9.367 100 100;"
	 xml:space="preserve">
<defs>
</defs>
<path id="normal_4_" style="&st0;" d="M97.238,1.5c-3.965,2.352-8.355,4.059-13.029,4.979C80.467,2.491,75.135,0,69.235,0
	C57.904,0,48.718,9.185,48.718,20.515c0,1.608,0.181,3.174,0.532,4.676C32.199,24.334,17.08,16.167,6.961,3.755
	c-1.766,3.029-2.778,6.553-2.778,10.314c0,7.118,3.623,13.397,9.127,17.076c-3.362-0.106-6.526-1.029-9.292-2.565
	c-0.002,0.084-0.002,0.171-0.002,0.258c0,9.938,7.072,18.231,16.457,20.117c-1.722,0.469-3.534,0.719-5.405,0.719
	c-1.321,0-2.606-0.128-3.859-0.368c2.611,8.15,10.188,14.082,19.165,14.247c-7.021,5.503-15.869,8.783-25.479,8.783
	c-1.656,0-3.29-0.098-4.895-0.287c9.079,5.822,19.863,9.217,31.449,9.217c37.737,0,58.374-31.261,58.374-58.373
	c0-0.89-0.02-1.774-0.06-2.654C93.771,17.347,97.25,13.734,100,9.62c-3.68,1.632-7.633,2.734-11.784,3.23
	C92.453,10.311,95.705,6.291,97.238,1.5z"/>
</svg>
