<?xml version="1.0" encoding="utf-8"?>
<!-- Generator: Adobe Illustrator 15.1.0, SVG Export Plug-In  -->
<!DOCTYPE svg PUBLIC "-//W3C//DTD SVG 1.1//EN" "http://www.w3.org/Graphics/SVG/1.1/DTD/svg11.dtd" [
	<!ENTITY ns_flows "http://ns.adobe.com/Flows/1.0/">
	<!ENTITY st0 "fill:#808080;">
	<!ENTITY st1 "fill:#EEEEEE;">
	<!ENTITY st2 "fill:#5BC9ED;">
	<!ENTITY st3 "fill:#2A2A2A;">
	<!ENTITY st4 "display:none;fill:#EEEEEE;">
	<!ENTITY st5 "display:none;">
	<!ENTITY st6 "display:none;fill:#5BC9ED;">
	<!ENTITY st7 "display:none;fill:#2A2A2A;">
]>
<svg version="1.1"
	 xmlns="http://www.w3.org/2000/svg" xmlns:xlink="http://www.w3.org/1999/xlink" xmlns:a="http://ns.adobe.com/AdobeSVGViewerExtensions/3.0/"
	 x="0px" y="0px" viewBox="0 0 50 50" style="enable-background:new 0 0 50 50;" xml:space="preserve">
<defs>
</defs>
<rect style="&st6;" width="50" height="50"/>
<path id="Search_dark_1_" style="&st0;" d="M41.876,36.866l-9.461-9.461c1.146-1.99,1.813-4.29,1.813-6.747
	c0-7.484-6.088-13.572-13.571-13.572S7.085,13.174,7.085,20.658c0,7.482,6.088,13.57,13.571,13.57c2.457,0,4.757-0.667,6.748-1.813
	l9.461,9.461c0.692,0.692,1.599,1.038,2.505,1.038s1.813-0.346,2.505-1.038C43.26,40.493,43.26,38.25,41.876,36.866z M14.172,20.658
	c0-3.576,2.909-6.485,6.484-6.485s6.484,2.909,6.484,6.485c0,3.575-2.909,6.483-6.484,6.483S14.172,24.233,14.172,20.658z"/>
<path id="Search_light_1_" style="&st4;" d="M41.876,36.866l-9.461-9.461c1.146-1.99,1.813-4.29,1.813-6.747
	c0-7.484-6.088-13.572-13.571-13.572S7.085,13.174,7.085,20.658c0,7.482,6.088,13.57,13.571,13.57c2.457,0,4.757-0.667,6.748-1.813
	l9.461,9.461c0.692,0.692,1.599,1.038,2.505,1.038s1.813-0.346,2.505-1.038C43.26,40.493,43.26,38.25,41.876,36.866z M14.172,20.658
	c0-3.576,2.909-6.485,6.484-6.485s6.484,2.909,6.484,6.485c0,3.575-2.909,6.483-6.484,6.483S14.172,24.233,14.172,20.658z"/>
<path style="&st7;" d="M0,0v50h50V0H0z M41.876,41.876c-0.692,0.692-1.599,1.038-2.505,1.038s-1.813-0.346-2.505-1.038l-9.461-9.461
	c-1.99,1.146-4.291,1.813-6.748,1.813c-7.483,0-13.571-6.088-13.571-13.57c0-7.484,6.088-13.572,13.571-13.572
	s13.571,6.088,13.571,13.572c0,2.457-0.667,4.757-1.813,6.747l9.461,9.461C43.26,38.25,43.26,40.493,41.876,41.876z"/>
<path style="&st7;" d="M27.141,20.658c0-3.576-2.909-6.485-6.484-6.485s-6.484,2.909-6.484,6.485c0,3.575,2.909,6.483,6.484,6.483
	S27.141,24.233,27.141,20.658z"/>
</svg>
