<svg xmlns="http://www.w3.org/2000/svg" viewBox="0 0 50 50"><rect style="display:none;fill:#5BC9ED;" width="50" height="50"/><path style="fill:#808080;" d="M41.876 36.866l-9.461-9.461c1.146-1.99 1.813-4.29 1.813-6.747 c0-7.484-6.088-13.572-13.571-13.572S7.085 13.2 7.1 20.658c0 7.5 6.1 13.6 13.6 13.57c2.457 0 4.757-0.667 6.748-1.813 l9.461 9.461c0.692 0.7 1.6 1 2.5 1.038s1.813-0.346 2.505-1.038C43.26 40.5 43.3 38.2 41.9 36.866z M14.172 20.7 c0-3.576 2.909-6.485 6.484-6.485s6.484 2.9 6.5 6.485c0 3.575-2.909 6.483-6.484 6.483S14.172 24.2 14.2 20.658z"/><path style="display:none;fill:#EEEEEE;" d="M41.876 36.866l-9.461-9.461c1.146-1.99 1.813-4.29 1.813-6.747 c0-7.484-6.088-13.572-13.571-13.572S7.085 13.2 7.1 20.658c0 7.5 6.1 13.6 13.6 13.57c2.457 0 4.757-0.667 6.748-1.813 l9.461 9.461c0.692 0.7 1.6 1 2.5 1.038s1.813-0.346 2.505-1.038C43.26 40.5 43.3 38.2 41.9 36.866z M14.172 20.7 c0-3.576 2.909-6.485 6.484-6.485s6.484 2.9 6.5 6.485c0 3.575-2.909 6.483-6.484 6.483S14.172 24.2 14.2 20.658z"/><path style="display:none;fill:#2A2A2A;" d="M0 0v50h50V0H0z M41.876 41.876c-0.692 0.692-1.599 1.038-2.505 1.038s-1.813-0.346-2.505-1.038l-9.461-9.461 c-1.99 1.146-4.291 1.813-6.748 1.813c-7.483 0-13.571-6.088-13.571-13.57c0-7.484 6.088-13.572 13.571-13.572 s13.571 6.1 13.6 13.572c0 2.457-0.667 4.757-1.813 6.747l9.461 9.461C43.26 38.2 43.3 40.5 41.9 41.876z"/><path style="display:none;fill:#2A2A2A;" d="M27.141 20.658c0-3.576-2.909-6.485-6.484-6.485s-6.484 2.909-6.484 6.485c0 3.6 2.9 6.5 6.5 6.5 S27.141 24.2 27.1 20.658z"/></svg>