<?xml version="1.0" encoding="utf-8"?>
<!-- Generator: Adobe Illustrator 15.1.0, SVG Export Plug-In  -->
<!DOCTYPE svg PUBLIC "-//W3C//DTD SVG 1.1//EN" "http://www.w3.org/Graphics/SVG/1.1/DTD/svg11.dtd" [
	<!ENTITY ns_flows "http://ns.adobe.com/Flows/1.0/">
	<!ENTITY st0 "fill:#474747;">
	<!ENTITY st1 "fill:#EEEEEE;">
	<!ENTITY st2 "fill:#5BC9ED;">
	<!ENTITY st3 "fill:#2A2A2A;">
	<!ENTITY st4 "display:none;fill:#808080;">
	<!ENTITY st5 "fill:#CFCFCF;">
	<!ENTITY st6 "display:none;fill:#5BC9ED;">
	<!ENTITY st7 "display:none;fill:#2A2A2A;">
]>
<svg version="1.1"
	 xmlns="http://www.w3.org/2000/svg" xmlns:xlink="http://www.w3.org/1999/xlink" xmlns:a="http://ns.adobe.com/AdobeSVGViewerExtensions/3.0/"
	 x="0px" y="0px" viewBox="0 0 50 50" style="enable-background:new 0 0 50 50;" xml:space="preserve">
<defs>
</defs>
<path style="&st1;" d="M0,0v50h50V0H0z M36.476,36.476c-0.471,0.47-1.087,0.706-1.704,0.706s-1.233-0.236-1.704-0.706l-6.434-6.434
	c-1.353,0.78-2.917,1.233-4.588,1.233c-5.088,0-9.229-4.14-9.229-9.228c0-5.089,4.14-9.229,9.229-9.229s9.229,4.14,9.229,9.229
	c0,1.67-0.453,3.234-1.233,4.587l6.434,6.434C37.417,34.01,37.417,35.535,36.476,36.476z"/>
<path style="&st1;" d="M26.456,22.047c0-2.432-1.978-4.41-4.41-4.41c-2.431,0-4.409,1.978-4.409,4.41
	c0,2.431,1.978,4.409,4.409,4.409C24.478,26.456,26.456,24.479,26.456,22.047z"/>
</svg>
