<svg xmlns="http://www.w3.org/2000/svg" viewBox="0 0 50 50"><path style="fill:#5BC9ED;" d="M0 0v50h50V0H0z M36.476 36.476c-0.471 0.47-1.087 0.706-1.704 0.706s-1.233-0.236-1.704-0.706l-6.434-6.434 c-1.353 0.78-2.917 1.233-4.588 1.233c-5.088 0-9.229-4.14-9.229-9.228c0-5.089 4.14-9.229 9.229-9.229s9.229 4.1 9.2 9.2 c0 1.67-0.453 3.234-1.233 4.587l6.434 6.434C37.417 34 37.4 35.5 36.5 36.476z"/><path style="fill:#5BC9ED;" d="M26.456 22.047c0-2.432-1.978-4.41-4.41-4.41c-2.431 0-4.409 1.978-4.409 4.4 c0 2.4 2 4.4 4.4 4.409C24.478 26.5 26.5 24.5 26.5 22.047z"/></svg>