<?xml version="1.0" encoding="utf-8"?>
<!-- Generator: Adobe Illustrator 15.1.0, SVG Export Plug-In  -->
<!DOCTYPE svg PUBLIC "-//W3C//DTD SVG 1.1//EN" "http://www.w3.org/Graphics/SVG/1.1/DTD/svg11.dtd" [
	<!ENTITY ns_flows "http://ns.adobe.com/Flows/1.0/">
	<!ENTITY st0 "fill:#474747;">
	<!ENTITY st1 "fill:#EEEEEE;">
	<!ENTITY st2 "fill:#5BC9ED;">
	<!ENTITY st3 "fill:#2A2A2A;">
	<!ENTITY st4 "fill:#CFCFCF;">
	<!ENTITY st5 "display:none;fill:#EEEEEE;">
	<!ENTITY st6 "display:none;fill:#5BC9ED;">
	<!ENTITY st7 "display:none;fill:#2A2A2A;">
]>
<svg version="1.1"
	 xmlns="http://www.w3.org/2000/svg" xmlns:xlink="http://www.w3.org/1999/xlink" xmlns:a="http://ns.adobe.com/AdobeSVGViewerExtensions/3.0/"
	 x="0px" y="0px" viewBox="0 0 50 50" style="enable-background:new 0 0 50 50;" xml:space="preserve">
<defs>
</defs>
<rect id="Bg_9_" style="&st6;" width="50" height="50"/>
<path id="Settings_dark_2_" style="&st7;" d="M35.384,25c0-0.576-0.059-1.137-0.149-1.687l1.979-2.703
	c-0.529-1.472-1.308-2.822-2.298-3.993l-3.323,0.361c-0.87-0.716-1.864-1.283-2.937-1.688l-1.352-3.066
	c-0.749-0.134-1.516-0.216-2.304-0.216s-1.555,0.082-2.304,0.216l-1.352,3.066c-1.073,0.404-2.067,0.971-2.937,1.688l-3.323-0.361
	c-0.991,1.17-1.769,2.521-2.298,3.993l1.979,2.703c-0.09,0.55-0.149,1.111-0.149,1.687s0.059,1.137,0.149,1.687l-1.979,2.703
	c0.529,1.472,1.308,2.822,2.298,3.993l3.323-0.361c0.87,0.716,1.864,1.283,2.937,1.688l1.352,3.066
	c0.749,0.134,1.516,0.216,2.304,0.216s1.555-0.082,2.304-0.216l1.352-3.066c1.073-0.404,2.067-0.971,2.937-1.688l3.323,0.361
	c0.991-1.17,1.769-2.521,2.298-3.993l-1.979-2.703C35.325,26.137,35.384,25.576,35.384,25z M25,30.944
	c-3.283,0-5.944-2.661-5.944-5.944s2.661-5.944,5.944-5.944s5.944,2.661,5.944,5.944S28.283,30.944,25,30.944z"/>
<path id="Settings_light_2_" style="&st5;" d="M35.384,25c0-0.576-0.059-1.137-0.149-1.687l1.979-2.703
	c-0.529-1.472-1.308-2.822-2.298-3.993l-3.323,0.361c-0.87-0.716-1.864-1.283-2.937-1.688l-1.352-3.066
	c-0.749-0.134-1.516-0.216-2.304-0.216s-1.555,0.082-2.304,0.216l-1.352,3.066c-1.073,0.404-2.067,0.971-2.937,1.688l-3.323-0.361
	c-0.991,1.17-1.769,2.521-2.298,3.993l1.979,2.703c-0.09,0.55-0.149,1.111-0.149,1.687s0.059,1.137,0.149,1.687l-1.979,2.703
	c0.529,1.472,1.308,2.822,2.298,3.993l3.323-0.361c0.87,0.716,1.864,1.283,2.937,1.688l1.352,3.066
	c0.749,0.134,1.516,0.216,2.304,0.216s1.555-0.082,2.304-0.216l1.352-3.066c1.073-0.404,2.067-0.971,2.937-1.688l3.323,0.361
	c0.991-1.17,1.769-2.521,2.298-3.993l-1.979-2.703C35.325,26.137,35.384,25.576,35.384,25z M25,30.944
	c-3.283,0-5.944-2.661-5.944-5.944s2.661-5.944,5.944-5.944s5.944,2.661,5.944,5.944S28.283,30.944,25,30.944z"/>
<circle style="&st3;" cx="25" cy="25" r="5.944"/>
<path style="&st3;" d="M0,0v50h50V0H0z M35.384,25c0,0.576-0.059,1.137-0.149,1.687l1.979,2.703
	c-0.529,1.472-1.308,2.822-2.298,3.993l-3.323-0.361c-0.87,0.716-1.864,1.283-2.937,1.688l-1.352,3.066
	c-0.749,0.134-1.516,0.216-2.304,0.216s-1.555-0.082-2.304-0.216l-1.352-3.066c-1.073-0.404-2.067-0.971-2.937-1.688l-3.323,0.361
	c-0.991-1.17-1.769-2.521-2.298-3.993l1.979-2.703c-0.09-0.55-0.149-1.111-0.149-1.687s0.059-1.137,0.149-1.687l-1.979-2.703
	c0.529-1.472,1.308-2.822,2.298-3.993l3.323,0.361c0.87-0.716,1.864-1.283,2.937-1.688l1.352-3.066
	c0.749-0.134,1.516-0.216,2.304-0.216s1.555,0.082,2.304,0.216l1.352,3.066c1.073,0.404,2.067,0.971,2.937,1.688l3.323-0.361
	c0.991,1.17,1.769,2.521,2.298,3.993l-1.979,2.703C35.325,23.863,35.384,24.424,35.384,25z"/>
</svg>
