<svg xmlns="http://www.w3.org/2000/svg" viewBox="0 0 50 50"><rect style="display:none;fill:#5BC9ED;" width="50" height="50"/><path style="display:none;fill:#2A2A2A;" d="M35.384 25c0-0.576-0.059-1.137-0.149-1.687l1.979-2.703 c-0.529-1.472-1.308-2.822-2.298-3.993l-3.323 0.361c-0.87-0.716-1.864-1.283-2.937-1.688l-1.352-3.066 c-0.749-0.134-1.516-0.216-2.304-0.216s-1.555 0.082-2.304 0.216l-1.352 3.066c-1.073 0.404-2.067 0.971-2.937 1.688l-3.323-0.361 c-0.991 1.17-1.769 2.521-2.298 3.993l1.979 2.703c-0.09 0.55-0.149 1.111-0.149 1.687s0.059 1.1 0.1 1.687l-1.979 2.7 c0.529 1.5 1.3 2.8 2.3 3.993l3.323-0.361c0.87 0.7 1.9 1.3 2.9 1.688l1.352 3.1 c0.749 0.1 1.5 0.2 2.3 0.216s1.555-0.082 2.304-0.216l1.352-3.066c1.073-0.404 2.067-0.971 2.937-1.688l3.323 0.4 c0.991-1.17 1.769-2.521 2.298-3.993l-1.979-2.703C35.325 26.1 35.4 25.6 35.4 25z M25 30.9 c-3.283 0-5.944-2.661-5.944-5.944s2.661-5.944 5.944-5.944s5.944 2.7 5.9 5.944S28.283 30.9 25 30.944z"/><path style="display:none;fill:#EEEEEE;" d="M35.384 25c0-0.576-0.059-1.137-0.149-1.687l1.979-2.703 c-0.529-1.472-1.308-2.822-2.298-3.993l-3.323 0.361c-0.87-0.716-1.864-1.283-2.937-1.688l-1.352-3.066 c-0.749-0.134-1.516-0.216-2.304-0.216s-1.555 0.082-2.304 0.216l-1.352 3.066c-1.073 0.404-2.067 0.971-2.937 1.688l-3.323-0.361 c-0.991 1.17-1.769 2.521-2.298 3.993l1.979 2.703c-0.09 0.55-0.149 1.111-0.149 1.687s0.059 1.1 0.1 1.687l-1.979 2.7 c0.529 1.5 1.3 2.8 2.3 3.993l3.323-0.361c0.87 0.7 1.9 1.3 2.9 1.688l1.352 3.1 c0.749 0.1 1.5 0.2 2.3 0.216s1.555-0.082 2.304-0.216l1.352-3.066c1.073-0.404 2.067-0.971 2.937-1.688l3.323 0.4 c0.991-1.17 1.769-2.521 2.298-3.993l-1.979-2.703C35.325 26.1 35.4 25.6 35.4 25z M25 30.9 c-3.283 0-5.944-2.661-5.944-5.944s2.661-5.944 5.944-5.944s5.944 2.7 5.9 5.944S28.283 30.9 25 30.944z"/><circle style="fill:#EEEEEE;" cx="25" cy="25" r="5.9"/><path style="fill:#EEEEEE;" d="M0 0v50h50V0H0z M35.384 25c0 0.576-0.059 1.137-0.149 1.687l1.979 2.7 c-0.529 1.472-1.308 2.822-2.298 3.993l-3.323-0.361c-0.87 0.716-1.864 1.283-2.937 1.688l-1.352 3.1 c-0.749 0.134-1.516 0.216-2.304 0.216s-1.555-0.082-2.304-0.216l-1.352-3.066c-1.073-0.404-2.067-0.971-2.937-1.688l-3.323 0.4 c-0.991-1.17-1.769-2.521-2.298-3.993l1.979-2.703c-0.09-0.55-0.149-1.111-0.149-1.687s0.059-1.137 0.149-1.687l-1.979-2.703 c0.529-1.472 1.308-2.822 2.298-3.993l3.323 0.361c0.87-0.716 1.864-1.283 2.937-1.688l1.352-3.066 c0.749-0.134 1.516-0.216 2.304-0.216s1.555 0.1 2.3 0.216l1.352 3.066c1.073 0.4 2.1 1 2.9 1.688l3.323-0.361 c0.991 1.2 1.8 2.5 2.3 3.993l-1.979 2.703C35.325 23.9 35.4 24.4 35.4 25z"/></svg>